<?xml version="1.0" encoding="UTF-8"?>
<svg version="1.1" xmlns="http://www.w3.org/2000/svg" width="512" height="512">
<path d="M0 0 C168.96 0 337.92 0 512 0 C512 168.96 512 337.92 512 512 C343.04 512 174.08 512 0 512 C0 343.04 0 174.08 0 0 Z " fill="#FEFEFE" transform="translate(0,0)"/>
<path d="M0 0 C168.96 0 337.92 0 512 0 C512 168.96 512 337.92 512 512 C343.04 512 174.08 512 0 512 C0 343.04 0 174.08 0 0 Z M215 36 C214.09894531 36.46792969 213.19789063 36.93585937 212.26953125 37.41796875 C201.00649178 43.88964135 191.91553769 54.33082458 183.6015625 64.1796875 C180.94811123 67.19556138 178.04600125 69.96137714 175.1875 72.78125 C173.20279658 74.79430632 171.33903084 76.85446403 169.5 79 C166.24835372 82.79358733 162.74286906 86.27392647 159.1875 89.78125 C157.20279658 91.79430632 155.33903084 93.85446403 153.5 96 C150.24835372 99.79358733 146.74286906 103.27392647 143.1875 106.78125 C141.20279658 108.79430632 139.33903084 110.85446403 137.5 113 C134.95308392 115.97140209 132.28621141 118.7514401 129.5 121.5 C126.73439592 124.22829407 124.08712969 126.98516834 121.5625 129.9375 C118.0553056 134.03058303 114.24274842 137.77224704 110.41015625 141.55859375 C107.73145468 144.27202727 105.25391882 147.10777023 102.77734375 150.00390625 C100.05022777 153.06666727 97.10595363 155.90223493 94.1875 158.78125 C92.20279658 160.79430632 90.33903084 162.85446403 88.5 165 C85.24835372 168.79358733 81.74286906 172.27392647 78.1875 175.78125 C76.20279658 177.79430632 74.33903084 179.85446403 72.5 182 C69.25075327 185.79078785 65.74813968 189.26878424 62.1953125 192.7734375 C59.55579963 195.45052351 57.1137701 198.26084231 54.671875 201.1171875 C53.06377599 202.92817751 51.38049056 204.58308924 49.625 206.25 C34.82779768 220.98084715 26.8280044 239.18591375 26.625 260.0625 C26.69278307 267.75552174 27.42027197 274.70054229 30 282 C30.4021875 283.20011719 30.804375 284.40023438 31.21875 285.63671875 C37.36713615 303.00375559 50.31493303 315.62023728 64.109375 327.328125 C67.14513865 330.01264327 69.94025449 332.93259985 72.78515625 335.81640625 C74.77659461 337.77974671 76.81302578 339.62079669 78.9375 341.4375 C83.03058303 344.9446944 86.77224704 348.75725158 90.55859375 352.58984375 C93.27202727 355.26854532 96.10777023 357.74608118 99.00390625 360.22265625 C102.06666727 362.94977223 104.90223493 365.89404637 107.78125 368.8125 C109.79430632 370.79720342 111.85446403 372.66096916 114 374.5 C116.97140209 377.04691608 119.7514401 379.71378859 122.5 382.5 C125.22829407 385.26560408 127.98516834 387.91287031 130.9375 390.4375 C135.03058303 393.9446944 138.77224704 397.75725158 142.55859375 401.58984375 C145.27202727 404.26854532 148.10777023 406.74608118 151.00390625 409.22265625 C154.06803813 411.95099285 156.90481832 414.89667908 159.78515625 417.81640625 C161.77659461 419.77974671 163.81302578 421.62079669 165.9375 423.4375 C170.03058303 426.9446944 173.77224704 430.75725158 177.55859375 434.58984375 C180.27202727 437.26854532 183.10777023 439.74608118 186.00390625 442.22265625 C188.26132626 444.23268777 190.37735713 446.34832953 192.5 448.5 C195.82889784 451.86866283 199.24194565 455.0442195 202.84375 458.1171875 C204.45724999 459.52607698 206.03515465 460.97591387 207.59375 462.4453125 C213.36209517 467.87339012 218.96294913 472.35034939 226 476 C226.85078125 476.45117188 227.7015625 476.90234375 228.578125 477.3671875 C246.38085877 486.16444483 266.23937696 485.94126314 284.9375 480.3125 C297.01255618 476.04338336 306.01287057 468.8487713 315 460 C315.90105469 459.12601562 316.80210937 458.25203125 317.73046875 457.3515625 C322.12020418 453.03487864 326.28815592 448.60680364 330.2890625 443.9296875 C332.74573119 441.15892418 335.39359977 438.597071 338.03125 436 C339.93986455 434.06108998 341.72710552 432.06300449 343.5 430 C346.51071887 426.49661804 349.71228317 423.25776993 353.015625 420.03125 C355.65473316 417.32980071 358.01513288 414.42750219 360.359375 411.46875 C362 410 362 410 366 410 C367.70410156 411.26586914 367.70410156 411.26586914 369.390625 413.03515625 C370.01420898 413.67702881 370.63779297 414.31890137 371.28027344 414.98022461 C371.9302832 415.66737549 372.58029297 416.35452637 373.25 417.0625 C374.59212346 418.44168886 375.93585712 419.81931275 377.28125 421.1953125 C377.92320312 421.85563477 378.56515625 422.51595703 379.2265625 423.19628906 C383.8186105 427.94306437 383.8186105 427.94306437 389 432 C391.93263741 432.317299 391.93263741 432.317299 393.47949219 430.78515625 C393.99672852 430.21667969 394.51396484 429.64820313 395.046875 429.0625 C395.63654053 428.42320557 396.22620605 427.78391113 396.83374023 427.12524414 C397.78228882 426.07324829 397.78228882 426.07324829 398.75 425 C400.11047337 423.51934405 401.47115614 422.03888047 402.83203125 420.55859375 C403.52635254 419.79788574 404.22067383 419.03717773 404.93603516 418.25341797 C408.07324803 414.8282376 411.25535791 411.4458826 414.4375 408.0625 C415.66941281 406.74883104 416.9011818 405.4350272 418.1328125 404.12109375 C422.35606233 399.61927984 426.58327645 395.12120193 430.8125 390.625 C431.50077881 389.89289307 432.18905762 389.16078613 432.89819336 388.40649414 C433.53635986 387.7283667 434.17452637 387.05023926 434.83203125 386.3515625 C435.39639893 385.75166504 435.9607666 385.15176758 436.54223633 384.53369141 C437.67760451 383.33918749 438.83468877 382.16531123 440 381 C439.79406937 378.40210586 439.23773583 377.24900013 437.43359375 375.359375 C436.77488281 374.82828125 436.11617188 374.2971875 435.4375 373.75 C432.47766036 371.28082896 429.69639138 368.75512466 427 366 C423.1780051 362.11733851 419.14752953 358.52981236 415 355 C416.41067559 353.34847735 417.8223253 351.69777896 419.23828125 350.05078125 C420.36490699 348.73929895 421.48769128 347.42450056 422.60546875 346.10546875 C426.71532078 341.3122684 431.10326078 336.87388694 435.59375 332.4375 C437.65449345 330.34999365 439.59515626 328.22830777 441.5 326 C444.19611141 322.84605835 447.04816975 319.91626603 450 317 C453.6151621 313.42312252 457.06415976 309.78280406 460.359375 305.91015625 C461.44677869 304.64410767 462.56158836 303.40105828 463.703125 302.18359375 C478.59122417 286.12188316 484.86153182 266.12258931 484.30859375 244.5625 C483.0793113 220.28289647 467.75700948 202.91294504 451 187 C449.00054944 185.19848163 446.97614262 183.44135145 444.921875 181.703125 C441.60637509 178.76499906 438.55366203 175.56042431 435.44140625 172.41015625 C432.72797273 169.73145468 429.89222977 167.25391882 426.99609375 164.77734375 C423.93333273 162.05022777 421.09776507 159.10595363 418.21875 156.1875 C416.20569368 154.20279658 414.14553597 152.33903084 412 150.5 C409.02859791 147.95308392 406.2485599 145.28621141 403.5 142.5 C400.77170593 139.73439592 398.01483166 137.08712969 395.0625 134.5625 C390.96941697 131.0553056 387.22775296 127.24274842 383.44140625 123.41015625 C380.72797273 120.73145468 377.89222977 118.25391882 374.99609375 115.77734375 C371.93333273 113.05022777 369.09776507 110.10595363 366.21875 107.1875 C364.20569368 105.20279658 362.14553597 103.33903084 360 101.5 C357.02859791 98.95308392 354.2485599 96.28621141 351.5 93.5 C348.77170593 90.73439592 346.01483166 88.08712969 343.0625 85.5625 C338.96941697 82.0553056 335.22775296 78.24274842 331.44140625 74.41015625 C328.72797273 71.73145468 325.89222977 69.25391882 322.99609375 66.77734375 C320.73867374 64.76731223 318.62264287 62.65167047 316.5 60.5 C313.12425245 57.08378972 309.6648 53.85421216 306.0078125 50.7421875 C304.63786879 49.55348148 303.29990742 48.32714837 301.9921875 47.0703125 C286.7602006 32.62521791 267.61969819 26.5025731 246.93359375 26.7890625 C235.25597509 27.15223666 225.25237722 30.54161874 215 36 Z " fill="#000000" transform="translate(0,0)"/>
<path d="M0 0 C3.9014272 1.61630555 6.7143586 4.27438817 9.75 7.125 C10.28077148 7.61709961 10.81154297 8.10919922 11.35839844 8.61621094 C15.04283211 12.05039806 18.61229923 15.58528561 22.14453125 19.17578125 C24.01413647 21.01389838 25.94850607 22.72985688 27.9375 24.4375 C30.92801716 27.00665271 33.73116684 29.69317256 36.5 32.5 C39.2485599 35.28621141 42.02859791 37.95308392 45 40.5 C48.79358733 43.75164628 52.27392647 47.25713094 55.78125 50.8125 C57.79430632 52.79720342 59.85446403 54.66096916 62 56.5 C64.97140209 59.04691608 67.7514401 61.71378859 70.5 64.5 C73.22829407 67.26560408 75.98516834 69.91287031 78.9375 72.4375 C83.03058303 75.9446944 86.77224704 79.75725158 90.55859375 83.58984375 C93.27202727 86.26854532 96.10777023 88.74608118 99.00390625 91.22265625 C102.06666727 93.94977223 104.90223493 96.89404637 107.78125 99.8125 C109.79430632 101.79720342 111.85446403 103.66096916 114 105.5 C116.97140209 108.04691608 119.7514401 110.71378859 122.5 113.5 C125.22829407 116.26560408 127.98516834 118.91287031 130.9375 121.4375 C135.02778779 124.94229928 138.7670907 128.75198614 142.55078125 132.58203125 C145.30058997 135.29675469 148.17063581 137.81767727 151.10546875 140.328125 C154.21537263 143.07253502 157.10923774 146.02793506 160 149 C158.53095115 154.44902518 154.7564817 157.53896649 150.8125 161.3125 C149.4395789 162.65307903 148.06845867 163.99550506 146.69921875 165.33984375 C146.05001465 165.97647949 145.40081055 166.61311523 144.73193359 167.26904297 C142.21020444 169.78935023 139.89955196 172.45745383 137.6015625 175.1796875 C134.94811123 178.19556138 132.04600125 180.96137714 129.1875 183.78125 C126.60774723 186.39785638 124.22950093 189.14862951 121.83984375 191.9375 C118.40050466 195.79306484 114.68956865 199.38572867 111 203 C105.29807984 198.96800817 100.35070485 194.57533835 95.5 189.5625 C91.09574513 185.08024578 86.69240392 180.72309137 81.88671875 176.66796875 C79.48498902 174.54470044 77.25295437 172.2802216 75 170 C69.30897416 164.24778034 63.32984268 159.03336888 57 154 C51.38313951 159.52544685 45.85905458 165.04082118 40.7421875 171.0390625 C38.02833878 174.09366353 35.09136248 176.91661543 32.18359375 179.78515625 C29.61880213 182.38665329 27.25887846 185.12262357 24.88671875 187.8984375 C22.64673229 190.39349488 20.27221501 192.71839906 17.875 195.0625 C14.06932856 198.81595949 10.91637642 202.52822282 8 207 C8.6290625 207.556875 9.258125 208.11375 9.90625 208.6875 C14.77774712 213.03076249 19.49685352 217.4547189 24.07421875 222.10546875 C25.96758092 223.96810699 27.92214068 225.70834555 29.9375 227.4375 C32.92801716 230.00665271 35.73116684 232.69317256 38.5 235.5 C41.85133395 238.89724263 45.31582936 242.05691024 48.9375 245.16015625 C52.79306484 248.59949534 56.38572867 252.31043135 60 256 C58.34264993 260.34922438 55.08846754 263.09135867 51.8125 266.25 C47.57796967 270.40127359 43.51134776 274.58563977 39.671875 279.109375 C36.9897864 282.14239108 34.07266751 284.93508434 31.19140625 287.77734375 C28.58536728 290.42054549 26.17828918 293.19709208 23.765625 296.015625 C21.20744127 298.89075185 18.46265024 301.56171598 15.69921875 304.23828125 C13.80910864 306.09309306 13.80910864 306.09309306 12 309 C8.62995733 308.40484898 6.83547486 307.28495837 4.3125 305 C3.61769531 304.3709375 2.92289063 303.741875 2.20703125 303.09375 C-0.85484258 300.1890343 -3.81750987 297.19183931 -6.78125 294.1875 C-8.79430632 292.20279658 -10.85446403 290.33903084 -13 288.5 C-15.97140209 285.95308392 -18.7514401 283.28621141 -21.5 280.5 C-24.22829407 277.73439592 -26.98516834 275.08712969 -29.9375 272.5625 C-34.03058303 269.0553056 -37.77224704 265.24274842 -41.55859375 261.41015625 C-44.27202727 258.73145468 -47.10777023 256.25391882 -50.00390625 253.77734375 C-53.06666727 251.05022777 -55.90223493 248.10595363 -58.78125 245.1875 C-60.79430632 243.20279658 -62.85446403 241.33903084 -65 239.5 C-67.97140209 236.95308392 -70.7514401 234.28621141 -73.5 231.5 C-76.22829407 228.73439592 -78.98516834 226.08712969 -81.9375 223.5625 C-86.03058303 220.0553056 -89.77224704 216.24274842 -93.55859375 212.41015625 C-96.27202727 209.73145468 -99.10777023 207.25391882 -102.00390625 204.77734375 C-105.06666727 202.05022777 -107.90223493 199.10595363 -110.78125 196.1875 C-112.79430632 194.20279658 -114.85446403 192.33903084 -117 190.5 C-119.97140209 187.95308392 -122.7514401 185.28621141 -125.5 182.5 C-128.20803565 179.75499458 -130.94169249 177.1272909 -133.875 174.625 C-139.21083651 170.05605497 -144.07728975 165.00415215 -149 160 C-147.33256827 155.84657915 -144.33667256 152.88883232 -141.3125 149.6875 C-140.50002808 148.81702026 -140.50002808 148.81702026 -139.67114258 147.92895508 C-136.37252235 144.40927549 -133.00646663 140.9714865 -129.5625 137.59375 C-127.85622166 135.85334609 -126.27358373 134.03793102 -124.6875 132.1875 C-121.92381971 128.97666245 -119.01380404 125.97732835 -116 123 C-112.41441301 119.45767801 -109.05108338 115.82444339 -105.77734375 111.99609375 C-103.05022777 108.93333273 -100.10595363 106.09776507 -97.1875 103.21875 C-95.20279658 101.20569368 -93.33903084 99.14553597 -91.5 97 C-88.24835372 93.20641267 -84.74286906 89.72607353 -81.1875 86.21875 C-79.20279658 84.20569368 -77.33903084 82.14553597 -75.5 80 C-72.95308392 77.02859791 -70.28621141 74.2485599 -67.5 71.5 C-64.73439592 68.77170593 -62.08712969 66.01483166 -59.5625 63.0625 C-56.0553056 58.96941697 -52.24274842 55.22775296 -48.41015625 51.44140625 C-45.73145468 48.72797273 -43.25391882 45.89222977 -40.77734375 42.99609375 C-38.05022777 39.93333273 -35.10595363 37.09776507 -32.1875 34.21875 C-30.20279658 32.20569368 -28.33903084 30.14553597 -26.5 28 C-23.25075327 24.20921215 -19.74813968 20.73121576 -16.1953125 17.2265625 C-13.56965655 14.56353066 -11.14020795 11.76744394 -8.70703125 8.9296875 C-5.94778419 5.81053864 -2.98412025 2.90248778 0 0 Z " fill="#000000" transform="translate(250,101)"/>
</svg>
